<?xml version="1.0" encoding="utf-8"?>
<!-- Generator: Adobe Illustrator 17.0.0, SVG Export Plug-In . SVG Version: 6.00 Build 0)  -->
<!DOCTYPE svg PUBLIC "-//W3C//DTD SVG 1.1//EN" "http://www.w3.org/Graphics/SVG/1.1/DTD/svg11.dtd">
<svg version="1.1" id="Layer_1" xmlns="http://www.w3.org/2000/svg" xmlns:xlink="http://www.w3.org/1999/xlink" x="0px" y="0px"
	 width="78px" height="40.037px" viewBox="0 0 78 40.037" enable-background="new 0 0 78 40.037" xml:space="preserve">
<g>
	<path fill="#647F57" d="M0,17.227l23.674,9.254l3.446,6.509c0,0,4.544,5.858,11.812,5.858s11.764-5.858,11.764-5.858l3.968-6.509
		L78,17.227V2.062H0V17.227z"/>
</g>
<g opacity="0.05">
	<path d="M0,4.062h39v34.786c-4.957,0-11.702-5.858-11.702-5.858l-3.631-6.509L0,17.227V4.062z"/>
</g>
<path fill="#F2F2F2" d="M52.88,7.535h10.666l2.462-1.641l1.95,1.641H78V0H11.841L9.995,1.641L8.149,0H0v7.535h25.129l-0.008,8.236
	l-1.992,9.352l-1.716-0.626l-2.995-1.081l-6.004-2.125l-3.011-1.039c-1.005-0.343-2.006-0.697-3.014-1.031l-3.022-1.012
	C2.356,17.882,1.015,17.545,0,17.227c0.962,0.453,2.265,0.887,3.231,1.331l2.909,1.302c0.969,0.436,1.945,0.854,2.917,1.282
	l2.92,1.274l5.857,2.502l2.936,1.233l2.576,1.071l0.62,1.338l0.774,1.647c0.513,1.1,1.043,2.19,1.565,3.286l0.065,0.136l0.116,0.126
	c0.121,0.131,0.217,0.229,0.325,0.338l0.317,0.312c0.212,0.206,0.428,0.403,0.647,0.599c0.439,0.389,0.89,0.762,1.354,1.12
	c0.927,0.717,1.909,1.371,2.948,1.945c0.518,0.289,1.058,0.546,1.608,0.785c0.549,0.24,1.121,0.441,1.701,0.62
	c0.581,0.179,1.181,0.31,1.788,0.412c0.306,0.044,0.611,0.089,0.922,0.109c0.155,0.014,0.309,0.028,0.465,0.03l0.501,0.013
	l0.419-0.012c0.073-0.003,0.133-0.002,0.217-0.009l0.244-0.02c0.16-0.015,0.331-0.024,0.482-0.047l0.459-0.064
	c0.607-0.103,1.208-0.234,1.788-0.412c0.58-0.179,1.151-0.38,1.701-0.62c0.55-0.239,1.09-0.496,1.609-0.784
	c1.039-0.574,2.021-1.228,2.948-1.945c0.464-0.358,0.915-0.731,1.354-1.12c0.219-0.196,0.436-0.392,0.648-0.598l0.317-0.312
	c0.108-0.109,0.203-0.207,0.325-0.338l0.117-0.126l0.065-0.136c0.521-1.095,1.052-2.186,1.565-3.285l0.774-1.647l0.62-1.337
	c1.835-0.76,3.666-1.532,5.497-2.303l5.843-2.503l1.457-0.636l1.456-0.639c0.97-0.428,1.943-0.847,2.909-1.282l2.901-1.303
	C75.74,18.115,77.04,17.68,78,17.227c-1.013,0.318-2.351,0.654-3.361,0.981l-3.016,1.011c-1.006,0.335-2.005,0.688-3.008,1.031
	l-1.503,0.518l-1.502,0.521l-5.991,2.124c-1.531,0.553-3.061,1.108-4.59,1.667l-2.15-9.319V7.535z M29.28,33.288
	c-0.2-0.175-0.4-0.351-0.594-0.531L28.4,32.486c-0.055-0.053-0.114-0.111-0.168-0.165c-0.534-1.02-1.06-2.043-1.603-3.058
	l-0.853-1.608l-0.539-1.003l1.859-8.728c3.119,2.924,5.269,9.005,4.299,16.985c-0.294-0.2-0.585-0.404-0.87-0.619
	C30.099,33.971,29.683,33.636,29.28,33.288z M39.022,37.675h-0.006l-0.01-0.007C39.045,37.669,39.01,37.675,39.022,37.675z
	 M52.91,26.475l-0.634,1.179l-0.853,1.607c-0.542,1.015-1.069,2.038-1.602,3.057c-0.054,0.054-0.113,0.112-0.168,0.165l-0.286,0.271
	c-0.193,0.18-0.392,0.357-0.593,0.532c-0.403,0.348-0.819,0.683-1.245,1.003c-0.851,0.641-1.745,1.219-2.671,1.715
	c-0.462,0.25-0.934,0.474-1.411,0.678c-0.477,0.207-0.964,0.374-1.453,0.523c-0.489,0.149-0.985,0.253-1.481,0.335l-0.372,0.051
	c-0.126,0.019-0.235,0.021-0.353,0.034l-0.174,0.016c-0.056,0.006-0.136,0.007-0.203,0.01l-0.408,0.015l-0.001-0.001l-0.023-0.009
	l-0.046-0.001l-0.093-0.003l-0.186-0.005c-0.124,0-0.248-0.011-0.372-0.022c-0.248-0.014-0.496-0.051-0.744-0.085
	c-0.495-0.083-0.991-0.186-1.481-0.335c-0.489-0.149-0.976-0.316-1.453-0.523c-0.333-0.143-0.662-0.299-0.989-0.463
	c0.747-4.984,0.413-9.705-0.978-13.684c-1.142-3.266-2.937-5.811-5.138-7.339l0.007-7.662h22.992v8.497L52.91,26.475z"/>
</svg>
